<svg xmlns="http://www.w3.org/2000/svg"
     width="1960"
     height="1240"
     viewBox="-20 -20 1960 1240">
  <defs>
<linearGradient id="grad-l-o1:299" x1="0" y1="0" x2="1" y2="1" gradientUnits="objectBoundingBox"><stop offset="0" stop-color="#2563eb"/><stop offset="1" stop-color="#8b5cf6"/></linearGradient>
  </defs>
<g id="o1:270" transform="translate(0, 0)"><rect x="0" y="0" width="1920" height="1200" fill="#ffffff" stroke="none" stroke-width="0" rx="0" ry="0"/></g>
<g id="o1:271" transform="translate(95, 81)" fill-opacity="0.24"><ellipse fill="#8b5cf6" stroke="none" stroke-width="0" cx="3" cy="3" rx="3" ry="3"/></g>
<g id="o1:272" transform="translate(168, 164)" fill-opacity="0.29"><ellipse fill="#22d3ee" stroke="none" stroke-width="0" cx="2" cy="2" rx="2" ry="2"/></g>
<g id="o1:273" transform="translate(1812, 111)" fill-opacity="0.24"><ellipse fill="#34d399" stroke="none" stroke-width="0" cx="3" cy="3" rx="3" ry="3"/></g>
<g id="o1:274" transform="translate(1768, 1008)" fill-opacity="0.24"><ellipse fill="#8b5cf6" stroke="none" stroke-width="0" cx="2" cy="2" rx="2" ry="2"/></g>
<g id="o1:275" transform="translate(103, 1079)" fill-opacity="0.24"><ellipse fill="#f59e0b" stroke="none" stroke-width="0" cx="3" cy="3" rx="3" ry="3"/></g>
<g id="c1:139" transform="translate(70, 178)"><path fill="none" stroke="#cbd5e1" stroke-width="1" stroke-linecap="round" stroke-linejoin="round" d="M 0 0 L 1780 0"/></g>
<g id="a1:336" transform="translate(748, 27.293)"><text font-size="38" font-family="Noto Sans SC" font-weight="bold" fill="#0f172a" text-anchor="start" dominant-baseline="alphabetic" x="0"><tspan x="0" y="44.707"><tspan x="0" text-anchor="start">Jarvis</tspan></tspan></text></g>
<g id="a1:337" transform="translate(874, 27.293)"><text font-size="38" font-family="Noto Sans SC" font-weight="bold" fill="#0f172a" text-anchor="start" dominant-baseline="alphabetic" x="0"><tspan x="0" y="44.707"><tspan x="0" text-anchor="start">的持续演化世界观</tspan></tspan></text></g>
<g id="a1:338" transform="translate(595, 94.823)"><text font-size="18" font-family="Noto Sans SC" font-weight="normal" fill="#475569" text-anchor="middle" dominant-baseline="alphabetic" x="365"><tspan x="365" y="21.177"><tspan x="-0.31" text-anchor="start">不是知识库，而是站在 Principal 坐标系中，对人、事、物、场及其变化形成的当前最佳认知</tspan></tspan></text></g>
<g id="o1:276" transform="translate(732, 138)"><rect x="0" y="0" width="456" height="34" fill="#f8fafc" stroke="#cbd5e1" stroke-width="1" rx="17" ry="17"/></g>
<g id="o1:277" transform="translate(758, 149)"><ellipse fill="#34d399" stroke="none" stroke-width="0" cx="6" cy="6" rx="6" ry="6"/></g>
<g id="a1:339" transform="translate(782, 144.529)"><text font-size="14" font-family="Noto Sans SC" font-weight="normal" fill="#334155" text-anchor="start" dominant-baseline="alphabetic" x="0"><tspan x="0" y="16.471"><tspan x="0" text-anchor="start">世界变化 → 更新认知 → 自主决策 → 行动 → 回写世界</tspan></tspan></text></g>
<g id="a1:340" transform="translate(149, 204.117)"><text font-size="22" font-family="Noto Sans SC" font-weight="bold" fill="#0f172a" text-anchor="middle" dominant-baseline="alphabetic" x="56"><tspan x="56" y="25.883"><tspan x="12" text-anchor="start">世界变化</tspan></tspan></text></g>
<g id="a1:341" transform="translate(163, 241.529)"><text font-size="14" font-family="Noto Sans SC" font-weight="normal" fill="#f59e0b" text-anchor="middle" dominant-baseline="alphabetic" x="42"><tspan x="42" y="16.471"><tspan x="0" text-anchor="start">增量证据输入</tspan></tspan></text></g>
<g id="a1:342" transform="translate(870.5, 189.764)"><text font-size="24" font-family="Noto Sans SC" font-weight="bold" fill="#0f172a" text-anchor="middle" dominant-baseline="alphabetic" x="89.5"><tspan x="89.5" y="28.236"><tspan x="16.43" text-anchor="start">Agent 世界观</tspan></tspan></text></g>
<g id="a1:343" transform="translate(827, 229.529)"><text font-size="14" font-family="Noto Sans SC" font-weight="normal" fill="#6366f1" text-anchor="middle" dominant-baseline="alphabetic" x="133"><tspan x="133" y="16.471"><tspan x="9.93" text-anchor="start">PRINCIPAL-CENTERED WORLD MODEL</tspan></tspan></text></g>
<g id="a1:344" transform="translate(1634, 204.117)"><text font-size="22" font-family="Noto Sans SC" font-weight="bold" fill="#0f172a" text-anchor="middle" dominant-baseline="alphabetic" x="56"><tspan x="56" y="25.883"><tspan x="12" text-anchor="start">决策消费</tspan></tspan></text></g>
<g id="a1:345" transform="translate(1627, 241.529)"><text font-size="14" font-family="Noto Sans SC" font-weight="normal" fill="#059669" text-anchor="middle" dominant-baseline="alphabetic" x="63"><tspan x="63" y="16.471"><tspan x="0" text-anchor="start">不同阶段，不同深度</tspan></tspan></text></g>
<g id="c1:140" transform="translate(430, 372)" fill-opacity="0.72" stroke-opacity="0.72"><path fill="none" stroke="#f59e0b" stroke-width="3" stroke-linecap="round" stroke-linejoin="round" d="M 0 0 L 0 380"/></g>
<g id="o1:278" transform="translate(424, 366)"><ellipse fill="#f59e0b" stroke="none" stroke-width="0" cx="6" cy="6" rx="6" ry="6"/></g>
<g id="o1:279" transform="translate(424, 556)"><ellipse fill="#f59e0b" stroke="none" stroke-width="0" cx="6" cy="6" rx="6" ry="6"/></g>
<g id="o1:280" transform="translate(424, 746)"><ellipse fill="#f59e0b" stroke="none" stroke-width="0" cx="6" cy="6" rx="6" ry="6"/></g>
<g id="d1:1" transform="translate(345, 367)"><defs><symbol id="svgicon-d1-1" viewBox="0 0 90 390"><g transform="translate(-345 -367)"><path d="M350 372 H430 M350 562 H430 M350 752 H430" stroke="#F59E0B" stroke-width="2" stroke-opacity="0.72" /></g></symbol></defs><use href="#svgicon-d1-1" x="0" y="0" width="90" height="390"/></g>
<g id="c1:141" transform="translate(430, 570)"><path fill="none" stroke="#f59e0b" stroke-width="4" stroke-linecap="round" stroke-linejoin="round" d="M 0 0 L 84 0"/></g>
<g id="d1:2" transform="translate(495.5, 557.5)"><defs><symbol id="svgicon-d1-2" viewBox="0 0 21 25"><g transform="translate(-495.5 -557.5)"><polygon points="514,570 498,560 498,580" fill="#F59E0B" /></g></symbol></defs><use href="#svgicon-d1-2" x="0" y="0" width="21" height="25"/></g>
<g id="a1:346" transform="translate(452.5, 534.7055)"><text font-size="13" font-family="Noto Sans SC" font-weight="normal" fill="#b45309" text-anchor="middle" dominant-baseline="alphabetic" x="19.5"><tspan x="19.5" y="15.295"><tspan x="0" text-anchor="start">新事实</tspan></tspan></text></g>
<g id="o1:281" transform="translate(82, 338)"><ellipse fill="#fff7ed" stroke="#f97316" stroke-width="2" cx="34" cy="34" rx="34" ry="34"/></g>
<g id="d1:3" transform="translate(98, 359)"><defs><symbol id="svgicon-d1-3" viewBox="0 0 36 33"><g transform="translate(-98 -359)"><path d="M101 362 H131 V381 H116 L107 389 V381 H101 Z" fill="none" stroke="#EA580C" stroke-width="3" stroke-linejoin="round" /></g></symbol></defs><use href="#svgicon-d1-3" x="0" y="0" width="36" height="33"/></g>
<g id="a1:347" transform="translate(166, 344.6465)"><text font-size="19" font-family="Noto Sans SC" font-weight="bold" fill="#0f172a" text-anchor="start" dominant-baseline="alphabetic" x="0"><tspan x="0" y="22.354"><tspan x="0" text-anchor="start">Message</tspan></tspan></text></g>
<g id="a1:348" transform="translate(166, 376.529)"><text font-size="14" font-family="Noto Sans SC" font-weight="normal" fill="#475569" text-anchor="start" dominant-baseline="alphabetic" x="0"><tspan x="0" y="16.471"><tspan x="0" text-anchor="start">消息、会议等外部世界线索</tspan></tspan></text></g>
<g id="o1:282" transform="translate(82, 528)"><ellipse fill="#fff7ed" stroke="#f97316" stroke-width="2" cx="34" cy="34" rx="34" ry="34"/></g>
<g id="d1:4" transform="translate(94.5, 541.5)"><defs><symbol id="svgicon-d1-4" viewBox="0 0 43 40"><g transform="translate(-94.5 -541.5)"><path d="M102 549 H130 V574 H102 Z M108 557 H124 M108 565 H119" fill="none" stroke="#EA580C" stroke-width="3" stroke-linecap="round" /></g></symbol></defs><use href="#svgicon-d1-4" x="0" y="0" width="43" height="40"/></g>
<g id="a1:349" transform="translate(166, 534.6465)"><text font-size="19" font-family="Noto Sans SC" font-weight="bold" fill="#0f172a" text-anchor="start" dominant-baseline="alphabetic" x="0"><tspan x="0" y="22.354"><tspan x="0" text-anchor="start">Todo Event</tspan></tspan></text></g>
<g id="a1:350" transform="translate(166, 566.529)"><text font-size="14" font-family="Noto Sans SC" font-weight="normal" fill="#475569" text-anchor="start" dominant-baseline="alphabetic" x="0"><tspan x="0" y="16.471"><tspan x="0" text-anchor="start">线索判断、观察与状态变化</tspan></tspan></text></g>
<g id="o1:283" transform="translate(82, 718)"><ellipse fill="#fff7ed" stroke="#f97316" stroke-width="2" cx="34" cy="34" rx="34" ry="34"/></g>
<g id="d1:5" transform="translate(98, 738)"><defs><symbol id="svgicon-d1-5" viewBox="0 0 38 28"><g transform="translate(-98 -738)"><path d="M101 741 H125 L133 752 L125 763 H101 Z" fill="none" stroke="#EA580C" stroke-width="3" stroke-linejoin="round" /></g></symbol></defs><use href="#svgicon-d1-5" x="0" y="0" width="38" height="28"/></g>
<g id="a1:351" transform="translate(166, 716.6465)"><text font-size="19" font-family="Noto Sans SC" font-weight="bold" fill="#0f172a" text-anchor="start" dominant-baseline="alphabetic" x="0"><tspan x="0" y="22.354"><tspan x="0" text-anchor="start">Task Event</tspan></tspan></text></g>
<g id="a1:352" transform="translate(166, 748.529)"><text font-size="14" font-family="Noto Sans SC" font-weight="normal" fill="#475569" text-anchor="start" dominant-baseline="alphabetic" x="0"><tspan x="0" y="16.471"><tspan x="0" text-anchor="start">任务进展、ExecutionRun 结果与 effects</tspan></tspan></text></g>
<g id="a1:353" transform="translate(166, 772.7055)"><text font-size="13" font-family="Noto Sans SC" font-weight="normal" fill="#64748b" text-anchor="start" dominant-baseline="alphabetic" x="0"><tspan x="0" y="15.295"><tspan x="0" text-anchor="start">执行结果随 Task Event 作为证据进入</tspan></tspan></text></g>
<g id="o1:284" transform="translate(522, 248)"><ellipse fill="#f8fafc" stroke="#cbd5e1" stroke-width="2" cx="438" cy="332" rx="438" ry="332"/></g>
<g id="o1:285" transform="translate(566, 285)" stroke-opacity="0.86"><ellipse fill="none" stroke="#f59e0b" stroke-width="3" stroke-dasharray="10 12" cx="394" cy="295" rx="394" ry="295"/></g>
<g id="o1:286" transform="translate(678, 374)" fill-opacity="0.72" stroke-opacity="0.92"><ellipse fill="#f5f3ff" stroke="#8b5cf6" stroke-width="3" cx="282" cy="206" rx="282" ry="206"/></g>
<g id="o1:287" transform="translate(742, 426)"><ellipse fill="none" stroke="#cbd5e1" stroke-width="1" stroke-dasharray="4 9" cx="218" cy="154" rx="218" ry="154"/></g>
<g id="o1:288" transform="translate(556, 278)"><rect x="0" y="0" width="286" height="38" fill="#fff7ed" stroke="#f59e0b" stroke-width="1.5" rx="19" ry="19"/></g>
<g id="o1:289" transform="translate(574, 291)"><ellipse fill="#f59e0b" stroke="none" stroke-width="0" cx="6" cy="6" rx="6" ry="6"/></g>
<g id="a1:354" transform="translate(596, 285.3525)"><text font-size="15" font-family="Noto Sans SC" font-weight="bold" fill="#b45309" text-anchor="start" dominant-baseline="alphabetic" x="0"><tspan x="0" y="17.648"><tspan x="0" text-anchor="start">Fact｜事实、证据与变化流</tspan></tspan></text></g>
<g id="o1:290" transform="translate(834, 334)"><rect x="0" y="0" width="264" height="38" fill="#f5f3ff" stroke="#8b5cf6" stroke-width="1.5" rx="19" ry="19"/></g>
<g id="o1:291" transform="translate(852, 347)"><ellipse fill="#a78bfa" stroke="none" stroke-width="0" cx="6" cy="6" rx="6" ry="6"/></g>
<g id="a1:355" transform="translate(874, 341.3525)"><text font-size="15" font-family="Noto Sans SC" font-weight="bold" fill="#6d28d9" text-anchor="start" dominant-baseline="alphabetic" x="0"><tspan x="0" y="17.648"><tspan x="0" text-anchor="start">summary｜当前最佳认知</tspan></tspan></text></g>
<g id="d1:6" transform="translate(685, 315)"><defs><symbol id="svgicon-d1-6" viewBox="0 0 590 502"><g transform="translate(-685 -315)"><path d="M960 580 L720 430 M960 580 L1000 320 M960 580 L1250 430 M960 580 L1270 690 M960 580 L1000 812 M960 580 L690 690" stroke="#94A3B8" stroke-width="2" stroke-dasharray="5 8" /></g></symbol></defs><use href="#svgicon-d1-6" x="0" y="0" width="590" height="502"/></g>
<g id="d1:7" transform="translate(665, 367)"><defs><symbol id="svgicon-d1-7" viewBox="0 0 110 126"><g transform="translate(-665 -367)"><polygon points="720,372 770,401 770,459 720,488 670,459 670,401" fill="#EFF6FF" stroke="#60A5FA" stroke-width="2" /></g></symbol></defs><use href="#svgicon-d1-7" x="0" y="0" width="110" height="126"/></g>
<g id="o1:292" transform="translate(709, 391)"><ellipse fill="none" stroke="#2563eb" stroke-width="2" cx="11" cy="11" rx="11" ry="11"/></g>
<g id="c1:142" transform="translate(698, 432)"><path fill="none" stroke="#2563eb" stroke-width="2" stroke-linecap="round" stroke-linejoin="round" d="M 0 0 C 5 -16 39 -16 44 0"/></g>
<g id="a1:356" transform="translate(706, 431.6465)"><text font-size="19" font-family="Noto Sans SC" font-weight="bold" fill="#0f172a" text-anchor="middle" dominant-baseline="alphabetic" x="14"><tspan x="14" y="22.354"><tspan x="4.5" text-anchor="start">人</tspan></tspan></text></g>
<g id="a1:357" transform="translate(699, 461.7055)"><text font-size="13" font-family="Noto Sans SC" font-weight="normal" fill="#2563eb" text-anchor="middle" dominant-baseline="alphabetic" x="21"><tspan x="21" y="15.295"><tspan x="0.02" text-anchor="start">Person</tspan></tspan></text></g>
<g id="d1:8" transform="translate(945, 258)"><defs><symbol id="svgicon-d1-8" viewBox="0 0 110 126"><g transform="translate(-945 -258)"><polygon points="1000,263 1050,292 1050,350 1000,379 950,350 950,292" fill="#F5F3FF" stroke="#A78BFA" stroke-width="2" /></g></symbol></defs><use href="#svgicon-d1-8" x="0" y="0" width="110" height="126"/></g>
<g id="d1:9" transform="translate(974.75, 293.75)"><defs><symbol id="svgicon-d1-9" viewBox="0 0 50.5 50.5"><g transform="translate(-974.75 -293.75)"><path d="M981 310 H1019 V338 H981 Z M990 300 H1010" fill="none" stroke="#7C3AED" stroke-width="2.5" stroke-linecap="round" /></g></symbol></defs><use href="#svgicon-d1-9" x="0" y="0" width="50.5" height="50.5"/></g>
<g id="a1:358" transform="translate(986, 334.6465)"><text font-size="19" font-family="Noto Sans SC" font-weight="bold" fill="#0f172a" text-anchor="middle" dominant-baseline="alphabetic" x="14"><tspan x="14" y="22.354"><tspan x="4.5" text-anchor="start">事</tspan></tspan></text></g>
<g id="a1:359" transform="translate(943, 380.7055)"><text font-size="13" font-family="Noto Sans SC" font-weight="normal" fill="#7c3aed" text-anchor="middle" dominant-baseline="alphabetic" x="57"><tspan x="57" y="15.295"><tspan x="-4.79" text-anchor="start">Project · KeyMatter</tspan></tspan></text></g>
<g id="d1:10" transform="translate(1195, 367)"><defs><symbol id="svgicon-d1-10" viewBox="0 0 110 126"><g transform="translate(-1195 -367)"><polygon points="1250,372 1300,401 1300,459 1250,488 1200,459 1200,401" fill="#ECFEFF" stroke="#22D3EE" stroke-width="2" /></g></symbol></defs><use href="#svgicon-d1-10" x="0" y="0" width="110" height="126"/></g>
<g id="d1:11" transform="translate(1230.5, 386.5)"><defs><symbol id="svgicon-d1-11" viewBox="0 0 39 46"><g transform="translate(-1230.5 -386.5)"><path d="M1233 399 L1250 389 L1267 399 V420 L1250 430 L1233 420 Z M1250 389 V410 M1233 399 L1250 410 L1267 399" fill="none" stroke="#0891B2" stroke-width="2.5" stroke-linejoin="round" /></g></symbol></defs><use href="#svgicon-d1-11" x="0" y="0" width="39" height="46"/></g>
<g id="a1:360" transform="translate(1236, 431.6465)"><text font-size="19" font-family="Noto Sans SC" font-weight="bold" fill="#0f172a" text-anchor="middle" dominant-baseline="alphabetic" x="14"><tspan x="14" y="22.354"><tspan x="4.5" text-anchor="start">物</tspan></tspan></text></g>
<g id="a1:361" transform="translate(1222, 461.7055)"><text font-size="13" font-family="Noto Sans SC" font-weight="normal" fill="#0891b2" text-anchor="middle" dominant-baseline="alphabetic" x="28"><tspan x="28" y="15.295"><tspan x="0.205" text-anchor="start">Resource</tspan></tspan></text></g>
<g id="d1:12" transform="translate(1215, 627)"><defs><symbol id="svgicon-d1-12" viewBox="0 0 110 126"><g transform="translate(-1215 -627)"><polygon points="1270,632 1320,661 1320,719 1270,748 1220,719 1220,661" fill="#ECFDF5" stroke="#34D399" stroke-width="2" /></g></symbol></defs><use href="#svgicon-d1-12" x="0" y="0" width="110" height="126"/></g>
<g id="o1:293" transform="translate(1255, 645)"><ellipse fill="none" stroke="#059669" stroke-width="2.5" cx="15" cy="15" rx="15" ry="15"/></g>
<g id="o1:294" transform="translate(1265, 655)"><ellipse fill="#059669" stroke="none" stroke-width="0" cx="5" cy="5" rx="5" ry="5"/></g>
<g id="c1:143" transform="translate(1270, 675)"><path fill="none" stroke="#059669" stroke-width="3" stroke-linecap="round" stroke-linejoin="round" d="M 0 0 L 0 15"/></g>
<g id="d1:13" transform="translate(1260.5, 679.5)"><defs><symbol id="svgicon-d1-13" viewBox="0 0 19 17"><g transform="translate(-1260.5 -679.5)"><polygon points="1263,682 1270,694 1277,682" fill="#059669" /></g></symbol></defs><use href="#svgicon-d1-13" x="0" y="0" width="19" height="17"/></g>
<g id="a1:362" transform="translate(1256, 698.6465)"><text font-size="19" font-family="Noto Sans SC" font-weight="bold" fill="#0f172a" text-anchor="middle" dominant-baseline="alphabetic" x="14"><tspan x="14" y="22.354"><tspan x="4.5" text-anchor="start">场</tspan></tspan></text></g>
<g id="a1:363" transform="translate(1252, 726.7055)"><text font-size="13" font-family="Noto Sans SC" font-weight="normal" fill="#059669" text-anchor="middle" dominant-baseline="alphabetic" x="18"><tspan x="18" y="15.295"><tspan x="-0.845" text-anchor="start">Group</tspan></tspan></text></g>
<g id="d1:14" transform="translate(945, 749)"><defs><symbol id="svgicon-d1-14" viewBox="0 0 110 126"><g transform="translate(-945 -749)"><polygon points="1000,754 1050,783 1050,841 1000,870 950,841 950,783" fill="#F5F3FF" stroke="#8B5CF6" stroke-width="2" /></g></symbol></defs><use href="#svgicon-d1-14" x="0" y="0" width="110" height="126"/></g>
<g id="o1:295" transform="translate(974, 783)"><ellipse fill="none" stroke="#7c3aed" stroke-width="2.5" cx="9" cy="9" rx="9" ry="9"/></g>
<g id="o1:296" transform="translate(1008, 783)"><ellipse fill="none" stroke="#7c3aed" stroke-width="2.5" cx="9" cy="9" rx="9" ry="9"/></g>
<g id="c1:144" transform="translate(992, 792)"><path fill="none" stroke="#7c3aed" stroke-width="3" stroke-linecap="round" stroke-linejoin="round" d="M 0 0 L 16 0"/></g>
<g id="a1:364" transform="translate(974.5, 804.6465)"><text font-size="19" font-family="Noto Sans SC" font-weight="bold" fill="#0f172a" text-anchor="middle" dominant-baseline="alphabetic" x="25.5"><tspan x="25.5" y="22.354"><tspan x="6.5" text-anchor="start">关系</tspan></tspan></text></g>
<g id="a1:365" transform="translate(967, 834.7055)"><text font-size="13" font-family="Noto Sans SC" font-weight="normal" fill="#7c3aed" text-anchor="middle" dominant-baseline="alphabetic" x="33"><tspan x="33" y="15.295"><tspan x="-2.41" text-anchor="start">引用 · 反链</tspan></tspan></text></g>
<g id="d1:15" transform="translate(635, 627)"><defs><symbol id="svgicon-d1-15" viewBox="0 0 110 126"><g transform="translate(-635 -627)"><polygon points="690,632 740,661 740,719 690,748 640,719 640,661" fill="#FFF7ED" stroke="#F59E0B" stroke-width="2" /></g></symbol></defs><use href="#svgicon-d1-15" x="0" y="0" width="110" height="126"/></g>
<g id="o1:297" transform="translate(671, 651)"><ellipse fill="none" stroke="#d97706" stroke-width="2.5" cx="19" cy="19" rx="19" ry="19"/></g>
<g id="d1:16" transform="translate(683.75, 651.75)"><defs><symbol id="svgicon-d1-16" viewBox="0 0 23.5 31.5"><g transform="translate(-683.75 -651.75)"><path d="M690 670 V658 M690 670 L701 677" stroke="#D97706" stroke-width="2.5" stroke-linecap="round" /></g></symbol></defs><use href="#svgicon-d1-16" x="0" y="0" width="23.5" height="31.5"/></g>
<g id="a1:366" transform="translate(664.5, 693.6465)"><text font-size="19" font-family="Noto Sans SC" font-weight="bold" fill="#0f172a" text-anchor="middle" dominant-baseline="alphabetic" x="25.5"><tspan x="25.5" y="22.354"><tspan x="6.5" text-anchor="start">时间</tspan></tspan></text></g>
<g id="a1:367" transform="translate(662, 723.7055)"><text font-size="13" font-family="Noto Sans SC" font-weight="normal" fill="#b45309" text-anchor="middle" dominant-baseline="alphabetic" x="28"><tspan x="28" y="15.295"><tspan x="0.85" text-anchor="start">Fact 时序</tspan></tspan></text></g>
<g id="o1:298" transform="translate(834, 454)" fill-opacity="0.11"><ellipse fill="#2563eb" stroke="#3b82f6" stroke-width="1" cx="126" cy="126" rx="126" ry="126"/></g>
<g id="o1:299" transform="translate(855, 475)"><ellipse fill="url(#grad-l-o1:299)" stroke="#c4b5fd" stroke-width="3" cx="105" cy="105" rx="105" ry="105"/></g>
<g id="o1:300" transform="translate(937, 512)"><ellipse fill="none" stroke="#ffffff" stroke-width="3" cx="23" cy="23" rx="23" ry="23"/></g>
<g id="c1:145" transform="translate(916, 594)"><path fill="none" stroke="#ffffff" stroke-width="3" stroke-linecap="round" stroke-linejoin="round" d="M 0 0 C 6 -35 82 -35 88 0"/></g>
<g id="a1:368" transform="translate(901.5, 599.764)"><text font-size="24" font-family="Noto Sans SC" font-weight="bold" fill="#ffffff" text-anchor="middle" dominant-baseline="alphabetic" x="58.5"><tspan x="58.5" y="28.236"><tspan x="5.52" text-anchor="start">Principal</tspan></tspan></text></g>
<g id="a1:369" transform="translate(883, 636.529)"><text font-size="14" font-family="Noto Sans SC" font-weight="normal" fill="#e0e7ff" text-anchor="middle" dominant-baseline="alphabetic" x="77"><tspan x="77" y="16.471"><tspan x="0" text-anchor="start">世界的中心与判断坐标系</tspan></tspan></text></g>
<g id="o1:301" transform="translate(800, 700)"><rect x="0" y="0" width="320" height="48" fill="#ecfdf5" stroke="#34d399" stroke-width="2" rx="24" ry="24"/></g>
<g id="o1:302" transform="translate(819, 717)"><ellipse fill="#34d399" stroke="none" stroke-width="0" cx="7" cy="7" rx="7" ry="7"/></g>
<g id="a1:370" transform="translate(844, 712.3525)"><text font-size="15" font-family="Noto Sans SC" font-weight="bold" fill="#047857" text-anchor="start" dominant-baseline="alphabetic" x="0"><tspan x="0" y="17.648"><tspan x="0" text-anchor="start">动态行动状态 · Todo / Task</tspan></tspan></text></g>
<g id="o1:303" transform="translate(690, 888)"><rect x="0" y="0" width="540" height="36" fill="#f8fafc" stroke="#cbd5e1" stroke-width="1" rx="18" ry="18"/></g>
<g id="a1:371" transform="translate(756, 896.7055)"><text font-size="13" font-family="Noto Sans SC" font-weight="normal" fill="#475569" text-anchor="middle" dominant-baseline="alphabetic" x="204"><tspan x="204" y="15.295"><tspan x="-23.665" text-anchor="start">长期实体：principal · person · project · key_matter · group · resource</tspan></tspan></text></g>
<g id="d1:17" transform="translate(833, 889)"><defs><symbol id="svgicon-d1-17" viewBox="0 0 254 134"><g transform="translate(-833 -889)"><defs><linearGradient id="engine" x1="0" y1="0" x2="1" y2="0"><stop offset="0%" stop-color="#F97316" /><stop offset="100%" stop-color="#F59E0B" /></linearGradient></defs><polygon points="838,942 868,894 1052,894 1082,942 1052,1018 868,1018" fill="url(#engine)" stroke="#FED7AA" stroke-width="2" /></g></symbol></defs><use href="#svgicon-d1-17" x="0" y="0" width="254" height="134"/></g>
<g id="o1:304" transform="translate(881, 905)"><rect x="0" y="0" width="158" height="34" fill="#f97316" stroke="none" stroke-width="0" rx="10" ry="10"/></g>
<g id="a1:372" transform="translate(896.5, 905.47)"><text font-size="20" font-family="Noto Sans SC" font-weight="bold" fill="#ffffff" text-anchor="middle" dominant-baseline="alphabetic" x="63.5"><tspan x="63.5" y="23.53"><tspan x="9.01" text-anchor="start">FactEngine</tspan></tspan></text></g>
<g id="a1:373" transform="translate(882, 943.529)"><text font-size="14" font-family="Noto Sans SC" font-weight="normal" fill="#fff7ed" text-anchor="middle" dominant-baseline="alphabetic" x="78"><tspan x="78" y="16.471"><tspan x="-8.42" text-anchor="start">新增 · 更新 · 改判 · 不写</tspan></tspan></text></g>
<g id="a1:374" transform="translate(921, 971.7055)"><text font-size="13" font-family="Noto Sans SC" font-weight="normal" fill="#ffedd5" text-anchor="middle" dominant-baseline="alphabetic" x="39"><tspan x="39" y="15.295"><tspan x="0" text-anchor="start">周期增量运行</tspan></tspan></text></g>
<g id="c1:146" transform="translate(960, 886)"><path fill="none" stroke="#f59e0b" stroke-width="3" stroke-linecap="round" stroke-linejoin="round" d="M 0 22 L 0 0"/></g>
<g id="d1:18" transform="translate(949.5, 875.5)"><defs><symbol id="svgicon-d1-18" viewBox="0 0 21 17"><g transform="translate(-949.5 -875.5)"><polygon points="960,878 952,890 968,890" fill="#F59E0B" /></g></symbol></defs><use href="#svgicon-d1-18" x="0" y="0" width="21" height="17"/></g>
<g id="o1:305" transform="translate(526, 924)"><rect x="0" y="0" width="286" height="76" fill="#f5f3ff" stroke="#8b5cf6" stroke-width="2" stroke-dasharray="7 6" rx="16" ry="16"/></g>
<g id="d1:19" transform="translate(545, 938)"><defs><symbol id="svgicon-d1-19" viewBox="0 0 34 42"><g transform="translate(-545 -938)"><path d="M550 949 H570 V975 H550 Z M554 943 H574 V969" fill="none" stroke="#7C3AED" stroke-width="2" /></g></symbol></defs><use href="#svgicon-d1-19" x="0" y="0" width="34" height="42"/></g>
<g id="a1:375" transform="translate(590, 934.176)"><text font-size="16" font-family="Noto Sans SC" font-weight="bold" fill="#6d28d9" text-anchor="start" dominant-baseline="alphabetic" x="0"><tspan x="0" y="18.824"><tspan x="0" text-anchor="start">PageRevision</tspan></tspan></text></g>
<g id="a1:376" transform="translate(590, 963.7055)"><text font-size="13" font-family="Noto Sans SC" font-weight="normal" fill="#6366f1" text-anchor="start" dominant-baseline="alphabetic" x="0"><tspan x="0" y="15.295"><tspan x="0" text-anchor="start">认知版本轨迹，不是世界事实</tspan></tspan></text></g>
<g id="c1:147" transform="translate(812, 962)"><path fill="none" stroke="#8b5cf6" stroke-width="2" stroke-dasharray="6 6" d="M 0 0 L 38 0"/></g>
<g id="c1:148" transform="translate(1400, 580)"><path fill="none" stroke="#8b5cf6" stroke-width="4" stroke-linecap="round" stroke-linejoin="round" d="M 0 0 L 82 0"/></g>
<g id="d1:20" transform="translate(1463.5, 567.5)"><defs><symbol id="svgicon-d1-20" viewBox="0 0 21 25"><g transform="translate(-1463.5 -567.5)"><polygon points="1482,580 1466,570 1466,590" fill="#8B5CF6" /></g></symbol></defs><use href="#svgicon-d1-20" x="0" y="0" width="21" height="25"/></g>
<g id="c1:149" transform="translate(1490, 360)"><path fill="none" stroke="#94a3b8" stroke-width="3" stroke-linecap="round" stroke-linejoin="round" d="M 0 0 L 0 418"/></g>
<g id="o1:306" transform="translate(1484, 368)"><ellipse fill="#8b5cf6" stroke="none" stroke-width="0" cx="6" cy="6" rx="6" ry="6"/></g>
<g id="o1:307" transform="translate(1483, 563)"><ellipse fill="#8b5cf6" stroke="none" stroke-width="0" cx="7" cy="7" rx="7" ry="7"/></g>
<g id="o1:308" transform="translate(1484, 746)"><ellipse fill="#34d399" stroke="none" stroke-width="0" cx="6" cy="6" rx="6" ry="6"/></g>
<g id="d1:21" transform="translate(1485, 369)"><defs><symbol id="svgicon-d1-21" viewBox="0 0 60 388"><g transform="translate(-1485 -369)"><path d="M1490 374 H1540 M1490 570 H1540 M1490 752 H1540" stroke="#94A3B8" stroke-width="2" /></g></symbol></defs><use href="#svgicon-d1-21" x="0" y="0" width="60" height="388"/></g>
<g id="d1:22" transform="translate(1507, 311)"><defs><symbol id="svgicon-d1-22" viewBox="0 0 386 126"><g transform="translate(-1507 -311)"><polygon points="1540,316 1860,316 1888,374 1860,432 1540,432 1512,374" fill="#F5F3FF" stroke="#8B5CF6" stroke-width="2" /></g></symbol></defs><use href="#svgicon-d1-22" x="0" y="0" width="386" height="126"/></g>
<g id="o1:309" transform="translate(1572, 352)"><ellipse fill="#ede9fe" stroke="#a78bfa" stroke-width="2" cx="22" cy="22" rx="22" ry="22"/></g>
<g id="a1:377" transform="translate(1577.5, 360.9995)"><text font-size="17" font-family="Noto Sans SC" font-weight="bold" fill="#6d28d9" text-anchor="middle" dominant-baseline="alphabetic" x="16.5"><tspan x="16.5" y="20.001"><tspan x="4.235" text-anchor="start">M3</tspan></tspan></text></g>
<g id="a1:378" transform="translate(1632, 340.6465)"><text font-size="19" font-family="Noto Sans SC" font-weight="bold" fill="#0f172a" text-anchor="start" dominant-baseline="alphabetic" x="0"><tspan x="0" y="22.354"><tspan x="0" text-anchor="start">准入判断</tspan></tspan></text></g>
<g id="a1:379" transform="translate(1632, 374.529)"><text font-size="14" font-family="Noto Sans SC" font-weight="normal" fill="#6366f1" text-anchor="start" dominant-baseline="alphabetic" x="0"><tspan x="0" y="16.471"><tspan x="0" text-anchor="start">最短证据，决定准入 / 观察 / 放弃</tspan></tspan></text></g>
<g id="d1:23" transform="translate(1507, 491)"><defs><symbol id="svgicon-d1-23" viewBox="0 0 386 158"><g transform="translate(-1507 -491)"><polygon points="1540,496 1860,496 1888,570 1860,644 1540,644 1512,570" fill="#ECFDF5" stroke="#34D399" stroke-width="2" /></g></symbol></defs><use href="#svgicon-d1-23" x="0" y="0" width="386" height="158"/></g>
<g id="o1:310" transform="translate(1572, 548)"><ellipse fill="#d1fae5" stroke="#34d399" stroke-width="2" cx="22" cy="22" rx="22" ry="22"/></g>
<g id="a1:380" transform="translate(1577.5, 556.9995)"><text font-size="17" font-family="Noto Sans SC" font-weight="bold" fill="#047857" text-anchor="middle" dominant-baseline="alphabetic" x="16.5"><tspan x="16.5" y="20.001"><tspan x="4.235" text-anchor="start">M5</tspan></tspan></text></g>
<g id="a1:381" transform="translate(1632, 512.6465)"><text font-size="19" font-family="Noto Sans SC" font-weight="bold" fill="#0f172a" text-anchor="start" dominant-baseline="alphabetic" x="0"><tspan x="0" y="22.354"><tspan x="0" text-anchor="start">深入执行</tspan></tspan></text></g>
<g id="a1:382" transform="translate(1632, 546.7055)"><text font-size="13" font-family="Noto Sans SC" font-weight="normal" fill="#047857" text-anchor="start" dominant-baseline="alphabetic" x="0"><tspan x="0" y="15.295"><tspan x="0" text-anchor="start">current_world 自动上下文：</tspan></tspan></text></g>
<g id="a1:383" transform="translate(1632, 568.7055)"><text font-size="13" font-family="Noto Sans SC" font-weight="normal" fill="#047857" text-anchor="start" dominant-baseline="alphabetic" x="0"><tspan x="0" y="15.295"><tspan x="0" text-anchor="start">近期 Task + 未闭环 Todo</tspan></tspan></text></g>
<g id="a1:384" transform="translate(1632, 594.7055)"><text font-size="13" font-family="Noto Sans SC" font-weight="normal" fill="#059669" text-anchor="start" dominant-baseline="alphabetic" x="0"><tspan x="0" y="15.295"><tspan x="0" text-anchor="start">实体 summary / Fact 按需下钻</tspan></tspan></text></g>
<g id="d1:24" transform="translate(1507, 689)"><defs><symbol id="svgicon-d1-24" viewBox="0 0 386 126"><g transform="translate(-1507 -689)"><polygon points="1540,694 1860,694 1888,752 1860,810 1540,810 1512,752" fill="#ECFEFF" stroke="#22D3EE" stroke-width="2" /></g></symbol></defs><use href="#svgicon-d1-24" x="0" y="0" width="386" height="126"/></g>
<g id="o1:311" transform="translate(1572, 730)"><ellipse fill="#cffafe" stroke="#22d3ee" stroke-width="2" cx="22" cy="22" rx="22" ry="22"/></g>
<g id="d1:25" transform="translate(1575.75, 733.75)"><defs><symbol id="svgicon-d1-25" viewBox="0 0 36.5 36.5"><g transform="translate(-1575.75 -733.75)"><path d="M1582 752 H1606 M1594 740 V764" stroke="#0891B2" stroke-width="2.5" stroke-linecap="round" /></g></symbol></defs><use href="#svgicon-d1-25" x="0" y="0" width="36.5" height="36.5"/></g>
<g id="a1:385" transform="translate(1632, 718.6465)"><text font-size="19" font-family="Noto Sans SC" font-weight="bold" fill="#0f172a" text-anchor="start" dominant-baseline="alphabetic" x="0"><tspan x="0" y="22.354"><tspan x="0" text-anchor="start">Proactive 巡视</tspan></tspan></text></g>
<g id="a1:386" transform="translate(1632, 752.529)"><text font-size="14" font-family="Noto Sans SC" font-weight="normal" fill="#0e7490" text-anchor="start" dominant-baseline="alphabetic" x="0"><tspan x="0" y="16.471"><tspan x="0" text-anchor="start">发现目标，也允许选择 NOTHING</tspan></tspan></text></g>
<g id="c1:150" transform="translate(1090, 644)"><path fill="none" stroke="#34d399" stroke-width="5" stroke-linecap="round" stroke-linejoin="round" d="M 590 0 L 590 404 L 0 404"/></g>
<g id="c1:151" transform="translate(960, 1012)"><path fill="none" stroke="#34d399" stroke-width="5" stroke-linecap="round" stroke-linejoin="round" d="M 130 36 L 0 36 L 0 0"/></g>
<g id="d1:26" transform="translate(947.5, 1001.5)"><defs><symbol id="svgicon-d1-26" viewBox="0 0 25 23"><g transform="translate(-947.5 -1001.5)"><polygon points="960,1004 950,1022 970,1022" fill="#34D399" /></g></symbol></defs><use href="#svgicon-d1-26" x="0" y="0" width="25" height="23"/></g>
<g id="o1:312" transform="translate(1200, 1028)"><rect x="0" y="0" width="342" height="40" fill="#ecfdf5" stroke="#34d399" stroke-width="1.5" rx="20" ry="20"/></g>
<g id="a1:387" transform="translate(1240.5, 1036.3525)"><text font-size="15" font-family="Noto Sans SC" font-weight="bold" fill="#047857" text-anchor="middle" dominant-baseline="alphabetic" x="130.5"><tspan x="130.5" y="17.648"><tspan x="22.09" text-anchor="start">行动改变现实 · 结果回写世界观</tspan></tspan></text></g>
<g id="c1:152" transform="translate(118, 1114)"><path fill="none" stroke="#cbd5e1" stroke-width="1" stroke-linecap="round" stroke-linejoin="round" d="M 0 0 L 1684 0"/></g>
<g id="o1:313" transform="translate(490, 1144)"><ellipse fill="#f59e0b" stroke="none" stroke-width="0" cx="6" cy="6" rx="6" ry="6"/></g>
<g id="a1:388" transform="translate(512, 1139.529)"><text font-size="14" font-family="Noto Sans SC" font-weight="normal" fill="#475569" text-anchor="start" dominant-baseline="alphabetic" x="0"><tspan x="0" y="16.471"><tspan x="0" text-anchor="start">橙色：世界事实与变化</tspan></tspan></text></g>
<g id="o1:314" transform="translate(804, 1144)"><ellipse fill="#8b5cf6" stroke="none" stroke-width="0" cx="6" cy="6" rx="6" ry="6"/></g>
<g id="a1:389" transform="translate(826, 1139.529)"><text font-size="14" font-family="Noto Sans SC" font-weight="normal" fill="#475569" text-anchor="start" dominant-baseline="alphabetic" x="0"><tspan x="0" y="16.471"><tspan x="0" text-anchor="start">紫色：当前认知与判断</tspan></tspan></text></g>
<g id="o1:315" transform="translate(1112, 1144)"><ellipse fill="#34d399" stroke="none" stroke-width="0" cx="6" cy="6" rx="6" ry="6"/></g>
<g id="a1:390" transform="translate(1134, 1139.529)"><text font-size="14" font-family="Noto Sans SC" font-weight="normal" fill="#475569" text-anchor="start" dominant-baseline="alphabetic" x="0"><tspan x="0" y="16.471"><tspan x="0" text-anchor="start">青绿：行动状态与闭环</tspan></tspan></text></g>
<g id="a1:391" transform="translate(672.5, 1079.823)"><text font-size="18" font-family="Noto Sans SC" font-weight="bold" fill="#0f172a" text-anchor="middle" dominant-baseline="alphabetic" x="287.5"><tspan x="287.5" y="21.177"><tspan x="53.5" text-anchor="start">世界塑造认知，认知产生决策，决策通过行动再次改变世界</tspan></tspan></text></g>
</svg>