<svg xmlns="http://www.w3.org/2000/svg" width="1800" height="1150" viewBox="0 0 1800 1150">
<defs>
<marker id="arrow-blue" markerWidth="10" markerHeight="10" refX="8" refY="3" orient="auto" markerUnits="strokeWidth"><path d="M0,0 L0,6 L9,3 z" fill="#2563eb"/></marker>
<marker id="arrow-green" markerWidth="10" markerHeight="10" refX="8" refY="3" orient="auto" markerUnits="strokeWidth"><path d="M0,0 L0,6 L9,3 z" fill="#16a34a"/></marker>
<marker id="arrow-purple" markerWidth="10" markerHeight="10" refX="8" refY="3" orient="auto" markerUnits="strokeWidth"><path d="M0,0 L0,6 L9,3 z" fill="#9333ea"/></marker>
<marker id="arrow-orange" markerWidth="10" markerHeight="10" refX="8" refY="3" orient="auto" markerUnits="strokeWidth"><path d="M0,0 L0,6 L9,3 z" fill="#ea580c"/></marker>
<marker id="arrow-gray" markerWidth="10" markerHeight="10" refX="8" refY="3" orient="auto" markerUnits="strokeWidth"><path d="M0,0 L0,6 L9,3 z" fill="#94a3b8"/></marker>
<filter id="soft-shadow" x="-20%" y="-20%" width="140%" height="140%"><feDropShadow dx="0" dy="3" stdDeviation="6" flood-color="#0f172a" flood-opacity="0.08"/></filter>
</defs>
<rect width="1800" height="1150" fill="#ffffff" data-graph-role="background"/>
<circle cx="1690" cy="55" r="150" fill="#eff6ff" opacity="0.8"/>
<circle cx="1755" cy="115" r="72" fill="#f0fdf4" opacity="0.8"/>
<rect x="50" y="112" width="1700" height="40" rx="12" fill="#f9fafb" stroke="#e5e7eb" stroke-width="1"/>
<rect x="50" y="170" width="250" height="555" rx="18" fill="#ffffff" stroke="#e5e7eb" stroke-width="1.5" data-graph-role="container"/>
<rect x="50" y="170" width="250" height="62" rx="18" fill="#eff6ff"/>
<rect x="50" y="216" width="250" height="16" fill="#eff6ff"/>
<rect x="340" y="170" width="280" height="555" rx="18" fill="#ffffff" stroke="#e5e7eb" stroke-width="1.5" data-graph-role="container"/>
<rect x="340" y="170" width="280" height="62" rx="18" fill="#eff6ff"/>
<rect x="340" y="216" width="280" height="16" fill="#eff6ff"/>
<rect x="660" y="170" width="560" height="555" rx="18" fill="#ffffff" stroke="#e5e7eb" stroke-width="1.5" data-graph-role="container"/>
<rect x="660" y="170" width="560" height="62" rx="18" fill="#fff7ed"/>
<rect x="660" y="216" width="560" height="16" fill="#fff7ed"/>
<rect x="1260" y="170" width="490" height="555" rx="18" fill="#ffffff" stroke="#e5e7eb" stroke-width="1.5" data-graph-role="container"/>
<rect x="1260" y="170" width="490" height="62" rx="18" fill="#f0fdf4"/>
<rect x="1260" y="216" width="490" height="16" fill="#f0fdf4"/>
<rect x="50" y="780" width="1700" height="278" rx="18" fill="#f9fafb" stroke="#e5e7eb" stroke-width="1.5" data-graph-role="container"/>
<rect x="50" y="1080" width="790" height="42" rx="12" fill="#0f172a" stroke="#0f172a" stroke-width="1"/>
<rect x="860" y="1080" width="890" height="42" rx="12" fill="#fff7ed" stroke="#fdba74" stroke-width="1"/>
<path d="M 300 447 H 340" fill="none" stroke="#2563eb" stroke-width="3" stroke-linecap="round" stroke-linejoin="round" marker-end="url(#arrow-blue)"/>
<path d="M 620 447 H 660" fill="none" stroke="#2563eb" stroke-width="3" stroke-linecap="round" stroke-linejoin="round" marker-end="url(#arrow-blue)"/>
<path d="M 915 274 H 950" fill="none" stroke="#ea580c" stroke-width="2.5" stroke-linecap="round" stroke-linejoin="round" marker-end="url(#arrow-orange)"/>
<path d="M 1070 313 V 329 H 806 V 346" fill="none" stroke="#ea580c" stroke-width="2.5" stroke-linecap="round" stroke-linejoin="round" marker-end="url(#arrow-orange)"/>
<path d="M 922 386 H 960" fill="none" stroke="#94a3b8" stroke-width="2.2" stroke-linecap="round" stroke-linejoin="round" marker-end="url(#arrow-gray)"/>
<path d="M 922 496 H 960" fill="none" stroke="#2563eb" stroke-width="2.2" stroke-linecap="round" stroke-linejoin="round" marker-end="url(#arrow-blue)"/>
<path d="M 922 614 H 960" fill="none" stroke="#9333ea" stroke-width="2.2" stroke-linecap="round" stroke-linejoin="round" marker-end="url(#arrow-purple)"/>
<path d="M 1190 384 H 1260" fill="none" stroke="#94a3b8" stroke-width="2.2" stroke-linecap="round" stroke-linejoin="round" marker-end="url(#arrow-gray)" stroke-dasharray="8 7"/>
<path d="M 1190 497 H 1260" fill="none" stroke="#2563eb" stroke-width="2.6" stroke-linecap="round" stroke-linejoin="round" marker-end="url(#arrow-blue)"/>
<path d="M 1190 622 H 1260" fill="none" stroke="#9333ea" stroke-width="2.6" stroke-linecap="round" stroke-linejoin="round" marker-end="url(#arrow-purple)"/>
<path d="M 1685 452 V 421 H 1685 V 411" fill="none" stroke="#16a34a" stroke-width="2" stroke-linecap="round" stroke-linejoin="round" marker-end="url(#arrow-green)"/>
<path d="M 1705 411 H 1735 V 574 H 1725" fill="none" stroke="#9333ea" stroke-width="2" stroke-linecap="round" stroke-linejoin="round" marker-end="url(#arrow-purple)"/>
<path d="M 1510 725 V 810 H 1480 V 838" fill="none" stroke="#16a34a" stroke-width="3" stroke-linecap="round" stroke-linejoin="round" marker-end="url(#arrow-green)"/>
<path d="M 1125 928 H 820" fill="none" stroke="#16a34a" stroke-width="3" stroke-linecap="round" stroke-linejoin="round" marker-end="url(#arrow-green)"/>
<path d="M 470 928 H 390" fill="none" stroke="#ea580c" stroke-width="3" stroke-linecap="round" stroke-linejoin="round" marker-end="url(#arrow-orange)"/>
<path d="M 80 928 H 28 V 448 H 50" fill="none" stroke="#2563eb" stroke-width="2.5" stroke-linecap="round" stroke-linejoin="round" marker-end="url(#arrow-blue)" stroke-dasharray="8 7"/>
<path d="M 735 856 V 756 H 1232 V 715 H 1260" fill="none" stroke="#16a34a" stroke-width="2.5" stroke-linecap="round" stroke-linejoin="round" marker-end="url(#arrow-green)" stroke-dasharray="8 7"/>
<circle cx="82" cy="201" r="20" fill="#ffffff"/>
<rect x="74" y="191" width="16" height="20" rx="2" fill="none" stroke="#2563eb" stroke-width="2"/>
<line x1="78" y1="197" x2="86" y2="197" stroke="#2563eb" stroke-width="2"/>
<line x1="78" y1="202" x2="86" y2="202" stroke="#2563eb" stroke-width="2"/>
<line x1="78" y1="207" x2="84" y2="207" stroke="#2563eb" stroke-width="2"/>
<circle cx="372" cy="201" r="20" fill="#ffffff"/>
<line x1="364" y1="194" x2="379" y2="194" stroke="#2563eb" stroke-width="2"/>
<line x1="364" y1="201" x2="375" y2="201" stroke="#2563eb" stroke-width="2"/>
<line x1="364" y1="208" x2="380" y2="208" stroke="#2563eb" stroke-width="2"/>
<circle cx="380" cy="194" r="3" fill="#2563eb"/>
<circle cx="376" cy="201" r="3" fill="#2563eb"/>
<circle cx="692" cy="201" r="20" fill="#ffffff"/>
<circle cx="692" cy="201" r="8" fill="none" stroke="#ea580c" stroke-width="2"/>
<line x1="692" y1="187" x2="692" y2="191" stroke="#ea580c" stroke-width="2"/>
<line x1="692" y1="211" x2="692" y2="215" stroke="#ea580c" stroke-width="2"/>
<line x1="678" y1="201" x2="682" y2="201" stroke="#ea580c" stroke-width="2"/>
<line x1="702" y1="201" x2="706" y2="201" stroke="#ea580c" stroke-width="2"/>
<circle cx="1292" cy="201" r="20" fill="#ffffff"/>
<ellipse cx="1292" cy="194" rx="10" ry="4" fill="none" stroke="#16a34a" stroke-width="2"/>
<path d="M 1282 194 V 208 C 1282 213, 1302 213, 1302 208 V 194" fill="none" stroke="#16a34a" stroke-width="2"/>
<path d="M 1282 201 C 1282 206, 1302 206, 1302 201" fill="none" stroke="#16a34a" stroke-width="2"/>
<rect x="72" y="235" width="206" height="66" rx="12" fill="#ffffff" stroke="#2563eb" stroke-width="1.6"/>
<rect x="72" y="235" width="5" height="66" rx="2.5" fill="#2563eb"/>
<rect x="72" y="320" width="206" height="66" rx="12" fill="#ffffff" stroke="#2563eb" stroke-width="1.6"/>
<rect x="72" y="320" width="5" height="66" rx="2.5" fill="#2563eb"/>
<rect x="72" y="405" width="206" height="66" rx="12" fill="#ffffff" stroke="#2563eb" stroke-width="1.6"/>
<rect x="72" y="405" width="5" height="66" rx="2.5" fill="#2563eb"/>
<rect x="72" y="490" width="206" height="82" rx="12" fill="#ffffff" stroke="#2563eb" stroke-width="1.6"/>
<rect x="72" y="490" width="5" height="82" rx="2.5" fill="#2563eb"/>
<rect x="72" y="590" width="206" height="74" rx="12" fill="#f9fafb" stroke="#94a3b8" stroke-width="1.6" stroke-dasharray="6 5"/>
<rect x="72" y="590" width="5" height="74" rx="2.5" fill="#94a3b8"/>
<rect x="365" y="235" width="230" height="72" rx="12" fill="#eff6ff" stroke="#2563eb" stroke-width="1.6"/>
<rect x="365" y="235" width="5" height="72" rx="2.5" fill="#2563eb"/>
<rect x="365" y="328" width="230" height="72" rx="12" fill="#ffffff" stroke="#2563eb" stroke-width="1.6"/>
<rect x="365" y="328" width="5" height="72" rx="2.5" fill="#2563eb"/>
<rect x="365" y="421" width="230" height="72" rx="12" fill="#ffffff" stroke="#2563eb" stroke-width="1.6"/>
<rect x="365" y="421" width="5" height="72" rx="2.5" fill="#2563eb"/>
<rect x="365" y="514" width="230" height="72" rx="12" fill="#ffffff" stroke="#2563eb" stroke-width="1.6"/>
<rect x="365" y="514" width="5" height="72" rx="2.5" fill="#2563eb"/>
<rect x="365" y="610" width="230" height="78" rx="12" fill="#f9fafb" stroke="#94a3b8" stroke-width="1.4"/>
<circle cx="389" cy="649" r="20" fill="#ffffff"/>
<path d="M 379 651 A 11 11 0 1 1 396 657" fill="none" stroke="#64748b" stroke-width="2"/>
<path d="M 395 651 L 397 658 L 390 656" fill="none" stroke="#64748b" stroke-width="2"/>
<rect x="690" y="235" width="225" height="78" rx="12" fill="#ffffff" stroke="#ea580c" stroke-width="1.6"/>
<rect x="690" y="235" width="5" height="78" rx="2.5" fill="#ea580c"/>
<rect x="950" y="235" width="240" height="78" rx="12" fill="#ffffff" stroke="#ea580c" stroke-width="1.6"/>
<rect x="950" y="235" width="5" height="78" rx="2.5" fill="#ea580c"/>
<rect x="690" y="346" width="232" height="278" rx="18" fill="#fff7ed" stroke="#ea580c" stroke-width="2"/>
<circle cx="806" cy="388" r="20" fill="#ffffff"/>
<circle cx="803" cy="385" r="7" fill="none" stroke="#ea580c" stroke-width="2"/>
<line x1="808" y1="390" x2="816" y2="398" stroke="#ea580c" stroke-width="2.5"/>
<line x1="718" y1="526" x2="894" y2="526" stroke="#fed7aa" stroke-width="1.5"/>
<rect x="960" y="346" width="230" height="76" rx="12" fill="#f9fafb" stroke="#94a3b8" stroke-width="1.6"/>
<rect x="960" y="346" width="5" height="76" rx="2.5" fill="#94a3b8"/>
<rect x="960" y="457" width="230" height="82" rx="12" fill="#eff6ff" stroke="#2563eb" stroke-width="1.6"/>
<rect x="960" y="457" width="5" height="82" rx="2.5" fill="#2563eb"/>
<rect x="960" y="574" width="230" height="96" rx="12" fill="#faf5ff" stroke="#9333ea" stroke-width="1.6"/>
<rect x="960" y="574" width="5" height="96" rx="2.5" fill="#9333ea"/>
<rect x="1285" y="232" width="440" height="76" rx="12" fill="#ffffff" stroke="#16a34a" stroke-width="1.5"/>
<rect x="1308" y="269" width="58" height="30" rx="15" fill="#f0fdf4" stroke="#f0fdf4" stroke-width="1"/>
<rect x="1374" y="269" width="68" height="30" rx="15" fill="#f0fdf4" stroke="#f0fdf4" stroke-width="1"/>
<rect x="1450" y="269" width="80" height="30" rx="15" fill="#f0fdf4" stroke="#f0fdf4" stroke-width="1"/>
<rect x="1538" y="269" width="58" height="30" rx="15" fill="#f0fdf4" stroke="#f0fdf4" stroke-width="1"/>
<rect x="1604" y="269" width="72" height="30" rx="15" fill="#f0fdf4" stroke="#f0fdf4" stroke-width="1"/>
<rect x="1285" y="335" width="440" height="76" rx="12" fill="#f0fdf4" stroke="#16a34a" stroke-width="1.6"/>
<rect x="1285" y="335" width="5" height="76" rx="2.5" fill="#16a34a"/>
<rect x="1285" y="452" width="440" height="82" rx="12" fill="#eff6ff" stroke="#2563eb" stroke-width="1.6"/>
<rect x="1285" y="452" width="5" height="82" rx="2.5" fill="#2563eb"/>
<rect x="1285" y="574" width="440" height="96" rx="12" fill="#faf5ff" stroke="#9333ea" stroke-width="1.6"/>
<rect x="1285" y="574" width="5" height="96" rx="2.5" fill="#9333ea"/>
<rect x="1285" y="684" width="440" height="26" rx="8" fill="#f9fafb" stroke="#e5e7eb" stroke-width="1"/>
<circle cx="82" cy="812" r="20" fill="#f0fdf4"/>
<path d="M 72 814 A 11 11 0 1 1 89 820" fill="none" stroke="#16a34a" stroke-width="2"/>
<path d="M 88 814 L 90 821 L 83 819" fill="none" stroke="#16a34a" stroke-width="2"/>
<rect x="80" y="856" width="310" height="144" rx="14" fill="#ffffff" stroke="#2563eb" stroke-width="1.7"/>
<circle cx="112" cy="891" r="20" fill="#eff6ff"/>
<rect x="104" y="881" width="16" height="20" rx="2" fill="none" stroke="#2563eb" stroke-width="2"/>
<line x1="108" y1="887" x2="116" y2="887" stroke="#2563eb" stroke-width="2"/>
<line x1="108" y1="892" x2="116" y2="892" stroke="#2563eb" stroke-width="2"/>
<line x1="108" y1="897" x2="114" y2="897" stroke="#2563eb" stroke-width="2"/>
<rect x="470" y="856" width="350" height="144" rx="14" fill="#ffffff" stroke="#ea580c" stroke-width="1.7"/>
<circle cx="502" cy="891" r="20" fill="#fff7ed"/>
<circle cx="502" cy="891" r="8" fill="none" stroke="#ea580c" stroke-width="2"/>
<line x1="502" y1="877" x2="502" y2="881" stroke="#ea580c" stroke-width="2"/>
<line x1="502" y1="901" x2="502" y2="905" stroke="#ea580c" stroke-width="2"/>
<line x1="488" y1="891" x2="492" y2="891" stroke="#ea580c" stroke-width="2"/>
<line x1="512" y1="891" x2="516" y2="891" stroke="#ea580c" stroke-width="2"/>
<rect x="500" y="920" width="84" height="30" rx="15" fill="#fff7ed" stroke="#fff7ed" stroke-width="1"/>
<rect x="594" y="920" width="92" height="30" rx="15" fill="#fff7ed" stroke="#fff7ed" stroke-width="1"/>
<rect x="696" y="920" width="94" height="30" rx="15" fill="#fff7ed" stroke="#fff7ed" stroke-width="1"/>
<rect x="1125" y="838" width="390" height="180" rx="14" fill="#ffffff" stroke="#16a34a" stroke-width="1.7"/>
<circle cx="1157" cy="875" r="20" fill="#f0fdf4"/>
<circle cx="1154" cy="872" r="7" fill="none" stroke="#16a34a" stroke-width="2"/>
<line x1="1159" y1="877" x2="1167" y2="885" stroke="#16a34a" stroke-width="2.5"/>
<rect x="1152" y="906" width="94" height="30" rx="15" fill="#f0fdf4" stroke="#f0fdf4" stroke-width="1"/>
<rect x="1278" y="906" width="88" height="30" rx="15" fill="#f0fdf4" stroke="#f0fdf4" stroke-width="1"/>
<rect x="1398" y="906" width="90" height="30" rx="15" fill="#f0fdf4" stroke="#f0fdf4" stroke-width="1"/>
<circle cx="78" cy="1101" r="20" fill="#172554"/>
<path d="M 78 1090 L 88 1094 V 1102 C 88 1109, 82 1113, 78 1115 C 74 1113, 68 1109, 68 1102 V 1094 Z" fill="none" stroke="#38bdf8" stroke-width="2"/>
<path d="M 73 1102 L 77 1106 L 84 1098" fill="none" stroke="#38bdf8" stroke-width="2"/>
<circle cx="888" cy="1101" r="6" fill="#f59e0b"/>
<text x="52" y="57" font-family="Inter, PingFang SC, Microsoft YaHei, sans-serif" font-size="36" font-weight="750" fill="#111827" text-anchor="start" letter-spacing="0">Jarvis 知识库维护链路</text>
<text x="52" y="92" font-family="Inter, PingFang SC, Microsoft YaHei, sans-serif" font-size="17" font-weight="400" fill="#6b7280" text-anchor="start" letter-spacing="0">从增量证据到可复用的当前世界：当前状态可更新、历史证据可追溯、失败批次可重放</text>
<line x1="1165" y1="55" x2="1193" y2="55" stroke="#2563eb" stroke-width="3"/>
<text x="1201" y="60" font-family="Inter, PingFang SC, Microsoft YaHei, sans-serif" font-size="12.5" font-weight="500" fill="#111827" text-anchor="start" letter-spacing="0">证据流</text>
<line x1="1290" y1="55" x2="1318" y2="55" stroke="#16a34a" stroke-width="3"/>
<text x="1326" y="60" font-family="Inter, PingFang SC, Microsoft YaHei, sans-serif" font-size="12.5" font-weight="500" fill="#111827" text-anchor="start" letter-spacing="0">当前认知 / 读取</text>
<line x1="1482" y1="55" x2="1510" y2="55" stroke="#9333ea" stroke-width="3"/>
<text x="1518" y="60" font-family="Inter, PingFang SC, Microsoft YaHei, sans-serif" font-size="12.5" font-weight="500" fill="#111827" text-anchor="start" letter-spacing="0">历史审计</text>
<line x1="1615" y1="55" x2="1643" y2="55" stroke="#94a3b8" stroke-width="3" stroke-dasharray="7 5"/>
<text x="1651" y="60" font-family="Inter, PingFang SC, Microsoft YaHei, sans-serif" font-size="12.5" font-weight="500" fill="#111827" text-anchor="start" letter-spacing="0">控制 / 重放</text>
<text x="900" y="138" font-family="Inter, PingFang SC, Microsoft YaHei, sans-serif" font-size="15" font-weight="650" fill="#111827" text-anchor="middle" letter-spacing="0">维护目标  =  当前可信状态（Summary）  +  时间证据（Fact）  +  认知审计（PageRevision）</text>
<text x="112" y="199" font-family="Inter, PingFang SC, Microsoft YaHei, sans-serif" font-size="19" font-weight="700" fill="#2563eb" text-anchor="start" letter-spacing="0">01  增量证据</text>
<text x="112" y="220" font-family="Inter, PingFang SC, Microsoft YaHei, sans-serif" font-size="12.5" font-weight="400" fill="#6b7280" text-anchor="start" letter-spacing="0">外部变化与自身行动结果</text>
<text x="402" y="199" font-family="Inter, PingFang SC, Microsoft YaHei, sans-serif" font-size="19" font-weight="700" fill="#2563eb" text-anchor="start" letter-spacing="0">02  可靠增量接入</text>
<text x="402" y="220" font-family="Inter, PingFang SC, Microsoft YaHei, sans-serif" font-size="12.5" font-weight="400" fill="#6b7280" text-anchor="start" letter-spacing="0">独立游标、整条批处理、失败重放</text>
<text x="722" y="199" font-family="Inter, PingFang SC, Microsoft YaHei, sans-serif" font-size="19" font-weight="700" fill="#ea580c" text-anchor="start" letter-spacing="0">03  FactEngine / 世界维护 Agent</text>
<text x="722" y="220" font-family="Inter, PingFang SC, Microsoft YaHei, sans-serif" font-size="12.5" font-weight="400" fill="#6b7280" text-anchor="start" letter-spacing="0">读当前认知，判断新证据改变了什么</text>
<text x="1322" y="199" font-family="Inter, PingFang SC, Microsoft YaHei, sans-serif" font-size="19" font-weight="700" fill="#16a34a" text-anchor="start" letter-spacing="0">04  One World Model</text>
<text x="1322" y="220" font-family="Inter, PingFang SC, Microsoft YaHei, sans-serif" font-size="12.5" font-weight="400" fill="#6b7280" text-anchor="start" letter-spacing="0">实体索引 + 当前状态 + 时间证据 + 审计</text>
<text x="320" y="431" font-family="Inter, PingFang SC, Microsoft YaHei, sans-serif" font-size="11.5" font-weight="600" fill="#2563eb" text-anchor="middle" letter-spacing="0">原样进入</text>
<text x="640" y="431" font-family="Inter, PingFang SC, Microsoft YaHei, sans-serif" font-size="11.5" font-weight="600" fill="#2563eb" text-anchor="middle" letter-spacing="0">一次变化批</text>
<text x="90" y="262" font-family="Inter, PingFang SC, Microsoft YaHei, sans-serif" font-size="16" font-weight="700" fill="#111827" text-anchor="start" letter-spacing="0">Message</text>
<text x="90" y="285" font-family="Inter, PingFang SC, Microsoft YaHei, sans-serif" font-size="12.5" font-weight="400" fill="#6b7280" text-anchor="start" letter-spacing="0">消息 / 会议 / 文档变化</text>
<text x="90" y="347" font-family="Inter, PingFang SC, Microsoft YaHei, sans-serif" font-size="16" font-weight="700" fill="#111827" text-anchor="start" letter-spacing="0">TodoEvent</text>
<text x="90" y="370" font-family="Inter, PingFang SC, Microsoft YaHei, sans-serif" font-size="12.5" font-weight="400" fill="#6b7280" text-anchor="start" letter-spacing="0">线索准入与观察变化</text>
<text x="90" y="432" font-family="Inter, PingFang SC, Microsoft YaHei, sans-serif" font-size="16" font-weight="700" fill="#111827" text-anchor="start" letter-spacing="0">TaskEvent</text>
<text x="90" y="455" font-family="Inter, PingFang SC, Microsoft YaHei, sans-serif" font-size="12.5" font-weight="400" fill="#6b7280" text-anchor="start" letter-spacing="0">目标、状态与进度变化</text>
<text x="90" y="517" font-family="Inter, PingFang SC, Microsoft YaHei, sans-serif" font-size="16" font-weight="700" fill="#111827" text-anchor="start" letter-spacing="0">ExecutionRun / effects</text>
<text x="90" y="540" font-family="Inter, PingFang SC, Microsoft YaHei, sans-serif" font-size="12.5" font-weight="400" fill="#6b7280" text-anchor="start" letter-spacing="0">执行结果与真实副作用</text>
<text x="90" y="559" font-family="Inter, PingFang SC, Microsoft YaHei, sans-serif" font-size="12.5" font-weight="400" fill="#6b7280" text-anchor="start" letter-spacing="0">重新成为下一轮证据</text>
<text x="90" y="617" font-family="Inter, PingFang SC, Microsoft YaHei, sans-serif" font-size="16" font-weight="700" fill="#111827" text-anchor="start" letter-spacing="0">Resource</text>
<text x="90" y="640" font-family="Inter, PingFang SC, Microsoft YaHei, sans-serif" font-size="12.5" font-weight="400" fill="#6b7280" text-anchor="start" letter-spacing="0">元数据已进入；通用解析</text>
<text x="90" y="659" font-family="Inter, PingFang SC, Microsoft YaHei, sans-serif" font-size="12.5" font-weight="400" fill="#6b7280" text-anchor="start" letter-spacing="0">仍在建设</text>
<text x="175" y="694" font-family="Inter, PingFang SC, Microsoft YaHei, sans-serif" font-size="12.5" font-weight="600" fill="#2563eb" text-anchor="middle" letter-spacing="0">原始证据保留来源与完整语义</text>
<text x="383" y="262" font-family="Inter, PingFang SC, Microsoft YaHei, sans-serif" font-size="16" font-weight="700" fill="#111827" text-anchor="start" letter-spacing="0">独立来源游标</text>
<text x="383" y="285" font-family="Inter, PingFang SC, Microsoft YaHei, sans-serif" font-size="12.5" font-weight="400" fill="#6b7280" text-anchor="start" letter-spacing="0">Message / Todo / Task</text>
<text x="383" y="304" font-family="Inter, PingFang SC, Microsoft YaHei, sans-serif" font-size="12.5" font-weight="400" fill="#6b7280" text-anchor="start" letter-spacing="0">各自推进，互不遮蔽</text>
<text x="383" y="355" font-family="Inter, PingFang SC, Microsoft YaHei, sans-serif" font-size="16" font-weight="700" fill="#111827" text-anchor="start" letter-spacing="0">整条证据成批</text>
<text x="383" y="378" font-family="Inter, PingFang SC, Microsoft YaHei, sans-serif" font-size="12.5" font-weight="400" fill="#6b7280" text-anchor="start" letter-spacing="0">先按来源读取，再组成</text>
<text x="383" y="397" font-family="Inter, PingFang SC, Microsoft YaHei, sans-serif" font-size="12.5" font-weight="400" fill="#6b7280" text-anchor="start" letter-spacing="0">一次 WORLD_CHANGES</text>
<text x="383" y="448" font-family="Inter, PingFang SC, Microsoft YaHei, sans-serif" font-size="16" font-weight="700" fill="#111827" text-anchor="start" letter-spacing="0">预算控制</text>
<text x="383" y="471" font-family="Inter, PingFang SC, Microsoft YaHei, sans-serif" font-size="12.5" font-weight="400" fill="#6b7280" text-anchor="start" letter-spacing="0">超预算就缩小批次</text>
<text x="383" y="490" font-family="Inter, PingFang SC, Microsoft YaHei, sans-serif" font-size="12.5" font-weight="400" fill="#6b7280" text-anchor="start" letter-spacing="0">不截断单条证据</text>
<text x="383" y="541" font-family="Inter, PingFang SC, Microsoft YaHei, sans-serif" font-size="16" font-weight="700" fill="#111827" text-anchor="start" letter-spacing="0">冻结本轮输入</text>
<text x="383" y="564" font-family="Inter, PingFang SC, Microsoft YaHei, sans-serif" font-size="12.5" font-weight="400" fill="#6b7280" text-anchor="start" letter-spacing="0">一个变化批，只启动</text>
<text x="383" y="583" font-family="Inter, PingFang SC, Microsoft YaHei, sans-serif" font-size="12.5" font-weight="400" fill="#6b7280" text-anchor="start" letter-spacing="0">一个维护 Agent</text>
<text x="416" y="637" font-family="Inter, PingFang SC, Microsoft YaHei, sans-serif" font-size="13" font-weight="650" fill="#111827" text-anchor="start" letter-spacing="0">成功后推进游标</text>
<text x="416" y="660" font-family="Inter, PingFang SC, Microsoft YaHei, sans-serif" font-size="12.5" font-weight="500" fill="#6b7280" text-anchor="start" letter-spacing="0">失败停留，下轮原批重放</text>
<text x="708" y="262" font-family="Inter, PingFang SC, Microsoft YaHei, sans-serif" font-size="16" font-weight="700" fill="#111827" text-anchor="start" letter-spacing="0">1  定位受影响实体</text>
<text x="708" y="285" font-family="Inter, PingFang SC, Microsoft YaHei, sans-serif" font-size="12.5" font-weight="400" fill="#6b7280" text-anchor="start" letter-spacing="0">list-pages：人物 / 项目 /</text>
<text x="708" y="304" font-family="Inter, PingFang SC, Microsoft YaHei, sans-serif" font-size="12.5" font-weight="400" fill="#6b7280" text-anchor="start" letter-spacing="0">关键事项 / 群 / 资源</text>
<text x="968" y="262" font-family="Inter, PingFang SC, Microsoft YaHei, sans-serif" font-size="16" font-weight="700" fill="#111827" text-anchor="start" letter-spacing="0">2  读取完整当前认知</text>
<text x="968" y="285" font-family="Inter, PingFang SC, Microsoft YaHei, sans-serif" font-size="12.5" font-weight="400" fill="#6b7280" text-anchor="start" letter-spacing="0">get-page：加载整页 Summary</text>
<text x="968" y="304" font-family="Inter, PingFang SC, Microsoft YaHei, sans-serif" font-size="12.5" font-weight="400" fill="#6b7280" text-anchor="start" letter-spacing="0">来源提示不是实体白名单</text>
<text x="806" y="429" font-family="Inter, PingFang SC, Microsoft YaHei, sans-serif" font-size="19" font-weight="750" fill="#ea580c" text-anchor="middle" letter-spacing="0">语义对照</text>
<text x="806" y="458" font-family="Inter, PingFang SC, Microsoft YaHei, sans-serif" font-size="13.5" font-weight="650" fill="#111827" text-anchor="middle" letter-spacing="0">新证据</text>
<text x="806" y="481" font-family="Inter, PingFang SC, Microsoft YaHei, sans-serif" font-size="18" font-weight="700" fill="#ea580c" text-anchor="middle" letter-spacing="0">×</text>
<text x="806" y="505" font-family="Inter, PingFang SC, Microsoft YaHei, sans-serif" font-size="13.5" font-weight="650" fill="#111827" text-anchor="middle" letter-spacing="0">当前 Summary</text>
<text x="718" y="552" font-family="Inter, PingFang SC, Microsoft YaHei, sans-serif" font-size="12.3" font-weight="500" fill="#6b7280" text-anchor="start" letter-spacing="0">判断它是否改变长期认知</text>
<text x="718" y="574" font-family="Inter, PingFang SC, Microsoft YaHei, sans-serif" font-size="12.3" font-weight="500" fill="#6b7280" text-anchor="start" letter-spacing="0">允许工具调查，语义由 Agent 决定</text>
<text x="718" y="596" font-family="Inter, PingFang SC, Microsoft YaHei, sans-serif" font-size="12.3" font-weight="500" fill="#6b7280" text-anchor="start" letter-spacing="0">无有效变化时 NOTHING 也是正确结果</text>
<text x="978" y="373" font-family="Inter, PingFang SC, Microsoft YaHei, sans-serif" font-size="16" font-weight="700" fill="#111827" text-anchor="start" letter-spacing="0">A  噪声 / 重复</text>
<text x="978" y="396" font-family="Inter, PingFang SC, Microsoft YaHei, sans-serif" font-size="12.5" font-weight="400" fill="#6b7280" text-anchor="start" letter-spacing="0">NOTHING：保持当前状态</text>
<text x="978" y="484" font-family="Inter, PingFang SC, Microsoft YaHei, sans-serif" font-size="16" font-weight="700" fill="#111827" text-anchor="start" letter-spacing="0">B  新事实 / 状态前进</text>
<text x="978" y="507" font-family="Inter, PingFang SC, Microsoft YaHei, sans-serif" font-size="12.5" font-weight="400" fill="#6b7280" text-anchor="start" letter-spacing="0">追加 Fact，并更新 Summary</text>
<text x="978" y="526" font-family="Inter, PingFang SC, Microsoft YaHei, sans-serif" font-size="12.5" font-weight="400" fill="#6b7280" text-anchor="start" letter-spacing="0">时间证据不覆盖</text>
<text x="978" y="601" font-family="Inter, PingFang SC, Microsoft YaHei, sans-serif" font-size="16" font-weight="700" fill="#111827" text-anchor="start" letter-spacing="0">C  冲突 / 认知过期</text>
<text x="978" y="624" font-family="Inter, PingFang SC, Microsoft YaHei, sans-serif" font-size="12.5" font-weight="400" fill="#6b7280" text-anchor="start" letter-spacing="0">改写 Summary；旧认知自动</text>
<text x="978" y="643" font-family="Inter, PingFang SC, Microsoft YaHei, sans-serif" font-size="12.5" font-weight="400" fill="#6b7280" text-anchor="start" letter-spacing="0">归档为 PageRevision</text>
<text x="1225" y="369" font-family="Inter, PingFang SC, Microsoft YaHei, sans-serif" font-size="11.5" font-weight="600" fill="#64748b" text-anchor="middle" letter-spacing="0">保持</text>
<text x="1225" y="482" font-family="Inter, PingFang SC, Microsoft YaHei, sans-serif" font-size="11.5" font-weight="600" fill="#2563eb" text-anchor="middle" letter-spacing="0">写入</text>
<text x="1225" y="607" font-family="Inter, PingFang SC, Microsoft YaHei, sans-serif" font-size="11.5" font-weight="600" fill="#9333ea" text-anchor="middle" letter-spacing="0">归档</text>
<text x="1308" y="258" font-family="Inter, PingFang SC, Microsoft YaHei, sans-serif" font-size="16" font-weight="700" fill="#16a34a" text-anchor="start" letter-spacing="0">实体索引与关系</text>
<text x="1337.0" y="289" font-family="Inter, PingFang SC, Microsoft YaHei, sans-serif" font-size="12.5" font-weight="600" fill="#16a34a" text-anchor="middle" letter-spacing="0">人</text>
<text x="1408.0" y="289" font-family="Inter, PingFang SC, Microsoft YaHei, sans-serif" font-size="12.5" font-weight="600" fill="#16a34a" text-anchor="middle" letter-spacing="0">项目</text>
<text x="1490.0" y="289" font-family="Inter, PingFang SC, Microsoft YaHei, sans-serif" font-size="12.5" font-weight="600" fill="#16a34a" text-anchor="middle" letter-spacing="0">关键事项</text>
<text x="1567.0" y="289" font-family="Inter, PingFang SC, Microsoft YaHei, sans-serif" font-size="12.5" font-weight="600" fill="#16a34a" text-anchor="middle" letter-spacing="0">群</text>
<text x="1640.0" y="289" font-family="Inter, PingFang SC, Microsoft YaHei, sans-serif" font-size="12.5" font-weight="600" fill="#16a34a" text-anchor="middle" letter-spacing="0">资源</text>
<text x="1303" y="362" font-family="Inter, PingFang SC, Microsoft YaHei, sans-serif" font-size="16" font-weight="700" fill="#111827" text-anchor="start" letter-spacing="0">Summary  ·  现在应该相信什么</text>
<text x="1303" y="385" font-family="Inter, PingFang SC, Microsoft YaHei, sans-serif" font-size="12.5" font-weight="400" fill="#6b7280" text-anchor="start" letter-spacing="0">每个长期实体一页；当前状态可整体改写</text>
<text x="1303" y="479" font-family="Inter, PingFang SC, Microsoft YaHei, sans-serif" font-size="16" font-weight="700" fill="#111827" text-anchor="start" letter-spacing="0">Fact  ·  发生过什么</text>
<text x="1303" y="502" font-family="Inter, PingFang SC, Microsoft YaHei, sans-serif" font-size="12.5" font-weight="400" fill="#6b7280" text-anchor="start" letter-spacing="0">时间化证据只追加；支撑当前认知与追溯</text>
<text x="1303" y="601" font-family="Inter, PingFang SC, Microsoft YaHei, sans-serif" font-size="16" font-weight="700" fill="#111827" text-anchor="start" letter-spacing="0">PageRevision  ·  过去曾怎样理解</text>
<text x="1303" y="624" font-family="Inter, PingFang SC, Microsoft YaHei, sans-serif" font-size="12.5" font-weight="400" fill="#6b7280" text-anchor="start" letter-spacing="0">Summary 改写前自动归档；它是认知审计</text>
<text x="1303" y="643" font-family="Inter, PingFang SC, Microsoft YaHei, sans-serif" font-size="12.5" font-weight="400" fill="#6b7280" text-anchor="start" letter-spacing="0">不是另一条 Fact</text>
<text x="1505" y="702" font-family="Inter, PingFang SC, Microsoft YaHei, sans-serif" font-size="12" font-weight="600" fill="#111827" text-anchor="middle" letter-spacing="0">机器护栏：引用检查 · CAS · 整页读写 · 写后回读</text>
<text x="112" y="818" font-family="Inter, PingFang SC, Microsoft YaHei, sans-serif" font-size="20" font-weight="750" fill="#111827" text-anchor="start" letter-spacing="0">05  按需读取与结果回流</text>
<text x="426" y="818" font-family="Inter, PingFang SC, Microsoft YaHei, sans-serif" font-size="13" font-weight="400" fill="#6b7280" text-anchor="start" letter-spacing="0">默认读当前状态；需要解释或追责时再展开历史证据</text>
<text x="1540" y="792" font-family="Inter, PingFang SC, Microsoft YaHei, sans-serif" font-size="11.5" font-weight="600" fill="#16a34a" text-anchor="start" letter-spacing="0">按需读取</text>
<text x="950" y="912" font-family="Inter, PingFang SC, Microsoft YaHei, sans-serif" font-size="11.5" font-weight="600" fill="#16a34a" text-anchor="middle" letter-spacing="0">当前认知 + 必要历史</text>
<text x="430" y="912" font-family="Inter, PingFang SC, Microsoft YaHei, sans-serif" font-size="11.5" font-weight="600" fill="#ea580c" text-anchor="middle" letter-spacing="0">执行</text>
<text x="36" y="748" font-family="Inter, PingFang SC, Microsoft YaHei, sans-serif" font-size="11.5" font-weight="600" fill="#2563eb" text-anchor="start" letter-spacing="0">结果成为新证据</text>
<text x="985" y="749" font-family="Inter, PingFang SC, Microsoft YaHei, sans-serif" font-size="11.5" font-weight="600" fill="#16a34a" text-anchor="middle" letter-spacing="0">M5 核实过期认知后，可沿同一 update-page 入口修正</text>
<text x="142" y="895" font-family="Inter, PingFang SC, Microsoft YaHei, sans-serif" font-size="18" font-weight="700" fill="#111827" text-anchor="start" letter-spacing="0">行动结果</text>
<text x="104" y="929" font-family="Inter, PingFang SC, Microsoft YaHei, sans-serif" font-size="13.5" font-weight="650" fill="#2563eb" text-anchor="start" letter-spacing="0">TaskEvent / ExecutionRun / effects</text>
<text x="104" y="957" font-family="Inter, PingFang SC, Microsoft YaHei, sans-serif" font-size="12.5" font-weight="400" fill="#6b7280" text-anchor="start" letter-spacing="0">外部现实被改变后，再次沉淀为证据</text>
<text x="104" y="978" font-family="Inter, PingFang SC, Microsoft YaHei, sans-serif" font-size="12.5" font-weight="400" fill="#6b7280" text-anchor="start" letter-spacing="0">世界模型因此持续校正，而非一次性建库</text>
<text x="532" y="895" font-family="Inter, PingFang SC, Microsoft YaHei, sans-serif" font-size="18" font-weight="700" fill="#111827" text-anchor="start" letter-spacing="0">决策与执行 Agent</text>
<text x="542.0" y="940" font-family="Inter, PingFang SC, Microsoft YaHei, sans-serif" font-size="12.5" font-weight="600" fill="#ea580c" text-anchor="middle" letter-spacing="0">M3 准入</text>
<text x="640.0" y="940" font-family="Inter, PingFang SC, Microsoft YaHei, sans-serif" font-size="12.5" font-weight="600" fill="#ea580c" text-anchor="middle" letter-spacing="0">M5 执行</text>
<text x="743.0" y="940" font-family="Inter, PingFang SC, Microsoft YaHei, sans-serif" font-size="12.5" font-weight="600" fill="#ea580c" text-anchor="middle" letter-spacing="0">主动巡检</text>
<text x="500" y="972" font-family="Inter, PingFang SC, Microsoft YaHei, sans-serif" font-size="12.5" font-weight="400" fill="#6b7280" text-anchor="start" letter-spacing="0">上下文服务当前阶段目标；不是把全库塞进 Prompt</text>
<text x="1187" y="879" font-family="Inter, PingFang SC, Microsoft YaHei, sans-serif" font-size="18" font-weight="700" fill="#111827" text-anchor="start" letter-spacing="0">渐进式检索</text>
<text x="1199.0" y="926" font-family="Inter, PingFang SC, Microsoft YaHei, sans-serif" font-size="12.5" font-weight="600" fill="#16a34a" text-anchor="middle" letter-spacing="0">list-pages</text>
<text x="1262" y="926" font-family="Inter, PingFang SC, Microsoft YaHei, sans-serif" font-size="18" font-weight="700" fill="#16a34a" text-anchor="middle" letter-spacing="0">→</text>
<text x="1322.0" y="926" font-family="Inter, PingFang SC, Microsoft YaHei, sans-serif" font-size="12.5" font-weight="600" fill="#16a34a" text-anchor="middle" letter-spacing="0">get-page</text>
<text x="1382" y="926" font-family="Inter, PingFang SC, Microsoft YaHei, sans-serif" font-size="18" font-weight="700" fill="#16a34a" text-anchor="middle" letter-spacing="0">→</text>
<text x="1443.0" y="926" font-family="Inter, PingFang SC, Microsoft YaHei, sans-serif" font-size="12.5" font-weight="600" fill="#16a34a" text-anchor="middle" letter-spacing="0">list-facts</text>
<text x="1152" y="970" font-family="Inter, PingFang SC, Microsoft YaHei, sans-serif" font-size="12.4" font-weight="400" fill="#6b7280" text-anchor="start" letter-spacing="0">先找实体，再读完整 Summary；只有需要解释、冲突</text>
<text x="1152" y="991" font-family="Inter, PingFang SC, Microsoft YaHei, sans-serif" font-size="12.4" font-weight="400" fill="#6b7280" text-anchor="start" letter-spacing="0">或追责时，才按实体和时间展开 Fact / PageRevision</text>
<text x="108" y="1107" font-family="Inter, PingFang SC, Microsoft YaHei, sans-serif" font-size="13.5" font-weight="600" fill="#ffffff" text-anchor="start" letter-spacing="0">边界：FactEngine 只维护内部认知，不创建 Task，也不对外发送消息</text>
<text x="906" y="1107" font-family="Inter, PingFang SC, Microsoft YaHei, sans-serif" font-size="13.2" font-weight="600" fill="#9a3412" text-anchor="start" letter-spacing="0">当前收口项：Fact 证据指针需从可选字段升级为强追溯；Resource 通用解析尚未完全闭环</text>
</svg>